<?xml version="1.0" encoding="utf-8"?>
<svg version="1.1" xmlns:xlink="http://www.w3.org/1999/xlink" width="88px" height="88px" xmlns="http://www.w3.org/2000/svg">
  <g transform="matrix(1 0 0 1 -504 -140 )">
    <path d="M 548 140  C 572.64 140  592 159.36  592 184  C 592 208.64  572.64 228  548 228  C 523.36 228  504 208.64  504 184  C 504 159.36  523.36 140  548 140  Z " fill-rule="nonzero" fill="#ffffff" stroke="none" />
    <path d="M 548 140.5  C 572.36 140.5  591.5 159.64  591.5 184  C 591.5 208.36  572.36 227.5  548 227.5  C 523.64 227.5  504.5 208.36  504.5 184  C 504.5 159.64  523.64 140.5  548 140.5  Z " stroke-width="1" stroke="#797979" fill="none" />
  </g>
</svg>