<?xml version="1.0" encoding="utf-8"?>
<svg version="1.1" xmlns:xlink="http://www.w3.org/1999/xlink" width="12px" height="12px" viewBox="128 328  12 12" xmlns="http://www.w3.org/2000/svg">
  <path d="M 134 328  C 137.36 328  140 330.64  140 334  C 140 337.36  137.36 340  134 340  C 130.64 340  128 337.36  128 334  C 128 330.64  130.64 328  134 328  Z " fill-rule="nonzero" fill="#ffffff" stroke="none" />
  <path d="M 134 328.5  C 137.08 328.5  139.5 330.92  139.5 334  C 139.5 337.08  137.08 339.5  134 339.5  C 130.92 339.5  128.5 337.08  128.5 334  C 128.5 330.92  130.92 328.5  134 328.5  Z " stroke-width="1" stroke="#797979" fill="none" />
  <path d="M 134 337  C 132.32 337  131 335.68  131 334  C 131 332.32  132.32 331  134 331  C 135.68 331  137 332.32  137 334  C 137 335.68  135.68 337  134 337  " fill-rule="nonzero" fill="#797979" stroke="none" />
</svg>