<?xml version="1.0" encoding="utf-8"?>
<svg version="1.1" xmlns:xlink="http://www.w3.org/1999/xlink" width="12px" height="12px" viewBox="128 240  12 12" xmlns="http://www.w3.org/2000/svg">
  <path d="M 134 240  C 137.36 240  140 242.64  140 246  C 140 249.36  137.36 252  134 252  C 130.64 252  128 249.36  128 246  C 128 242.64  130.64 240  134 240  Z " fill-rule="nonzero" fill="#ffffff" stroke="none" />
  <path d="M 134 240.5  C 137.08 240.5  139.5 242.92  139.5 246  C 139.5 249.08  137.08 251.5  134 251.5  C 130.92 251.5  128.5 249.08  128.5 246  C 128.5 242.92  130.92 240.5  134 240.5  Z " stroke-width="1" stroke="#797979" fill="none" />
  <path d="M 134 249  C 132.32 249  131 247.68  131 246  C 131 244.32  132.32 243  134 243  C 135.68 243  137 244.32  137 246  C 137 247.68  135.68 249  134 249  " fill-rule="nonzero" fill="#797979" stroke="none" />
</svg>