<?xml version="1.0" encoding="utf-8"?>
<svg version="1.1" xmlns:xlink="http://www.w3.org/1999/xlink" width="12px" height="12px" viewBox="128 197  12 12" xmlns="http://www.w3.org/2000/svg">
  <path d="M 134 197  C 137.36 197  140 199.64  140 203  C 140 206.36  137.36 209  134 209  C 130.64 209  128 206.36  128 203  C 128 199.64  130.64 197  134 197  Z " fill-rule="nonzero" fill="#f0f0f0" stroke="none" />
  <path d="M 134 197.5  C 137.08 197.5  139.5 199.92  139.5 203  C 139.5 206.08  137.08 208.5  134 208.5  C 130.92 208.5  128.5 206.08  128.5 203  C 128.5 199.92  130.92 197.5  134 197.5  Z " stroke-width="1" stroke="#797979" fill="none" />
  <path d="M 134 206  C 132.32 206  131 204.68  131 203  C 131 201.32  132.32 200  134 200  C 135.68 200  137 201.32  137 203  C 137 204.68  135.68 206  134 206  " fill-rule="nonzero" fill="#797979" stroke="none" />
</svg>