<?xml version="1.0" encoding="utf-8"?>
<svg version="1.1" xmlns:xlink="http://www.w3.org/1999/xlink" width="12px" height="12px" viewBox="128 282  12 12" xmlns="http://www.w3.org/2000/svg">
  <path d="M 134 282  C 137.36 282  140 284.64  140 288  C 140 291.36  137.36 294  134 294  C 130.64 294  128 291.36  128 288  C 128 284.64  130.64 282  134 282  Z " fill-rule="nonzero" fill="#f0f0f0" stroke="none" />
  <path d="M 134 282.5  C 137.08 282.5  139.5 284.92  139.5 288  C 139.5 291.08  137.08 293.5  134 293.5  C 130.92 293.5  128.5 291.08  128.5 288  C 128.5 284.92  130.92 282.5  134 282.5  Z " stroke-width="1" stroke="#797979" fill="none" />
  <path d="M 134 291  C 132.32 291  131 289.68  131 288  C 131 286.32  132.32 285  134 285  C 135.68 285  137 286.32  137 288  C 137 289.68  135.68 291  134 291  " fill-rule="nonzero" fill="#797979" stroke="none" />
</svg>