<svg t="1567752930420" class="icon" viewBox="0 0 1024 1024" version="1.1" xmlns="http://www.w3.org/2000/svg" p-id="2996" width="200" height="200"><path d="M512.361242 0.722484C229.749765 0.722484 0.722484 229.749765 0.722484 512.361242s229.027281 511.638758 511.638758 511.638758 511.638758-229.027281 511.638758-511.638758S794.972719 0.722484 512.361242 0.722484zM785.700847 277.072437c62.494826 0 113.309501 50.33302 113.309501 112.466604 0 62.133584-50.814675 112.466604-113.309501 112.466604-62.61524 0-113.309501-50.33302-113.309501-112.466604C672.391345 327.405456 723.085607 277.072437 785.700847 277.072437zM467.567262 224.69238c32.030103 21.19285 174.118532 289.113829 174.118532 289.113829s-124.387582 17.580433-198.923801 56.47413c-74.656632 38.773283-174.118532 3.492004-174.118532 3.492004s241.550329-81.158984 181.222954-169.181562c-60.447789-88.142992-223.849483 28.176858-280.684854-31.789276C169.181562 372.801505 435.537159 203.49953 467.567262 224.69238zM808.579492 676.003763C648.669802 647.826905 677.087488 693.584196 439.149577 739.4619 201.091251 785.339605 48.285983 587.860771 48.285983 587.860771s92.357479 38.773283 181.222954 52.861712c127.518344 20.229539 134.984008-3.492004 415.668862-38.773283 280.684854-35.281279 323.311383 102.231421 323.311383 102.231421S968.489182 704.180621 808.579492 676.003763z" p-id="2997" fill="#1296db"></path></svg>