<svg t="1576746014621" class="icon" viewBox="0 0 1029 1024" version="1.1" xmlns="http://www.w3.org/2000/svg" p-id="1788" width="200" height="200"><path d="M84.917488 1017.691102a84.422555 84.422555 0 0 1-59.940014-24.48254 84.422555 84.422555 0 0 1 0-119.880028L389.68291 511.155774 31.731279 148.138789A84.422555 84.422555 0 1 1 151.611306 29.947213L507.030261 389.587296 869.203021 29.102987a84.422555 84.422555 0 1 1 119.880028 119.880028L627.754515 511.155774l361.328534 364.705437a84.422555 84.422555 0 1 1-119.880028 118.191576L507.030261 629.347351l-362.172759 363.861211A84.422555 84.422555 0 0 1 84.917488 1017.691102z" fill="#8a8a8a" p-id="1789"></path></svg>