<?xml version="1.0" encoding="utf-8"?>
<svg version="1.1" xmlns:xlink="http://www.w3.org/1999/xlink" width="145px" height="173px" xmlns="http://www.w3.org/2000/svg">
  <g transform="matrix(1 0 0 1 -655 -334 )">
    <path d="M 655.5 498.5  C 655.5 498.5  655.5 334.5  655.5 334.5  C 655.5 334.5  799.5 334.5  799.5 334.5  C 799.5 334.5  799.5 498.5  799.5 498.5  C 799.5 498.5  784.50851949857 498.5  784.50851949857 498.5  C 784.50851949857 498.5  775.389912112826 505.699983002975  775.389912112826 505.699983002975  C 775.389912112826 505.699983002975  764.836434790986 498.5  764.836434790986 498.5  C 764.836434790986 498.5  655.5 498.5  655.5 498.5  Z " fill-rule="nonzero" fill="#ffffff" stroke="none" />
    <path d="M 655 499  C 655 499  655 334  655 334  C 655 334  800 334  800 334  C 800 334  800 499  800 499  C 800 499  784.682121212121 499  784.682121212121 499  C 784.682121212121 499  775.411515151515 506.32  775.411515151515 506.32  C 775.411515151515 506.32  764.682121212121 499  764.682121212121 499  C 764.682121212121 499  655 499  655 499  Z M 656 498  C 656 498  764.990748369852 498  764.990748369852 498  C 764.990748369852 498  775.368309074137 505.079966005951  775.368309074137 505.079966005951  C 775.368309074137 505.079966005951  784.334917785018 498  784.334917785018 498  C 784.334917785018 498  799 498  799 498  C 799 498  799 335  799 335  C 799 335  656 335  656 335  C 656 335  656 498  656 498  Z " fill-rule="nonzero" fill="#d7d7d7" stroke="none" />
  </g>
</svg>