<?xml version="1.0" encoding="utf-8"?>
<svg version="1.1" xmlns:xlink="http://www.w3.org/1999/xlink" width="12px" height="12px" viewBox="232 312  12 12" xmlns="http://www.w3.org/2000/svg">
  <path d="M 238 312  C 241.36 312  244 314.64  244 318  C 244 321.36  241.36 324  238 324  C 234.64 324  232 321.36  232 318  C 232 314.64  234.64 312  238 312  Z " fill-rule="nonzero" fill="#f0f0f0" stroke="none" />
  <path d="M 238 312.5  C 241.08 312.5  243.5 314.92  243.5 318  C 243.5 321.08  241.08 323.5  238 323.5  C 234.92 323.5  232.5 321.08  232.5 318  C 232.5 314.92  234.92 312.5  238 312.5  Z " stroke-width="1" stroke="#797979" fill="none" />
  <path d="M 238 321  C 236.32 321  235 319.68  235 318  C 235 316.32  236.32 315  238 315  C 239.68 315  241 316.32  241 318  C 241 319.68  239.68 321  238 321  " fill-rule="nonzero" fill="#797979" stroke="none" />
</svg>