<?xml version="1.0" encoding="utf-8"?>
<svg version="1.1" xmlns:xlink="http://www.w3.org/1999/xlink" width="12px" height="12px" viewBox="232 53  12 12" xmlns="http://www.w3.org/2000/svg">
  <path d="M 238 53  C 241.36 53  244 55.64  244 59  C 244 62.36  241.36 65  238 65  C 234.64 65  232 62.36  232 59  C 232 55.64  234.64 53  238 53  Z " fill-rule="nonzero" fill="#ffffff" stroke="none" />
  <path d="M 238 53.5  C 241.08 53.5  243.5 55.92  243.5 59  C 243.5 62.08  241.08 64.5  238 64.5  C 234.92 64.5  232.5 62.08  232.5 59  C 232.5 55.92  234.92 53.5  238 53.5  Z " stroke-width="1" stroke="#797979" fill="none" />
  <path d="M 238 62  C 236.32 62  235 60.68  235 59  C 235 57.32  236.32 56  238 56  C 239.68 56  241 57.32  241 59  C 241 60.68  239.68 62  238 62  " fill-rule="nonzero" fill="#797979" stroke="none" />
</svg>