<?xml version="1.0" encoding="utf-8"?>
<svg version="1.1" xmlns:xlink="http://www.w3.org/1999/xlink" width="12px" height="12px" viewBox="146 385  12 12" xmlns="http://www.w3.org/2000/svg">
  <path d="M 152 385  C 155.36 385  158 387.64  158 391  C 158 394.36  155.36 397  152 397  C 148.64 397  146 394.36  146 391  C 146 387.64  148.64 385  152 385  Z " fill-rule="nonzero" fill="#f0f0f0" stroke="none" />
  <path d="M 152 385.5  C 155.08 385.5  157.5 387.92  157.5 391  C 157.5 394.08  155.08 396.5  152 396.5  C 148.92 396.5  146.5 394.08  146.5 391  C 146.5 387.92  148.92 385.5  152 385.5  Z " stroke-width="1" stroke="#797979" fill="none" />
  <path d="M 152 394  C 150.32 394  149 392.68  149 391  C 149 389.32  150.32 388  152 388  C 153.68 388  155 389.32  155 391  C 155 392.68  153.68 394  152 394  " fill-rule="nonzero" fill="#797979" stroke="none" />
</svg>