<?xml version="1.0" encoding="utf-8"?>
<svg version="1.1" xmlns:xlink="http://www.w3.org/1999/xlink" width="12px" height="12px" viewBox="388 298  12 12" xmlns="http://www.w3.org/2000/svg">
  <path d="M 394 298  C 397.36 298  400 300.64  400 304  C 400 307.36  397.36 310  394 310  C 390.64 310  388 307.36  388 304  C 388 300.64  390.64 298  394 298  Z " fill-rule="nonzero" fill="#ffffff" stroke="none" />
  <path d="M 394 298.5  C 397.08 298.5  399.5 300.92  399.5 304  C 399.5 307.08  397.08 309.5  394 309.5  C 390.92 309.5  388.5 307.08  388.5 304  C 388.5 300.92  390.92 298.5  394 298.5  Z " stroke-width="1" stroke="#797979" fill="none" />
  <path d="M 394 307  C 392.32 307  391 305.68  391 304  C 391 302.32  392.32 301  394 301  C 395.68 301  397 302.32  397 304  C 397 305.68  395.68 307  394 307  " fill-rule="nonzero" fill="#797979" stroke="none" />
</svg>