<?xml version="1.0" encoding="utf-8"?>
<svg version="1.1" xmlns:xlink="http://www.w3.org/1999/xlink" width="12px" height="12px" viewBox="488 298  12 12" xmlns="http://www.w3.org/2000/svg">
  <path d="M 494 298  C 497.36 298  500 300.64  500 304  C 500 307.36  497.36 310  494 310  C 490.64 310  488 307.36  488 304  C 488 300.64  490.64 298  494 298  Z " fill-rule="nonzero" fill="#ffffff" stroke="none" />
  <path d="M 494 298.5  C 497.08 298.5  499.5 300.92  499.5 304  C 499.5 307.08  497.08 309.5  494 309.5  C 490.92 309.5  488.5 307.08  488.5 304  C 488.5 300.92  490.92 298.5  494 298.5  Z " stroke-width="1" stroke="#797979" fill="none" />
  <path d="M 494 307  C 492.32 307  491 305.68  491 304  C 491 302.32  492.32 301  494 301  C 495.68 301  497 302.32  497 304  C 497 305.68  495.68 307  494 307  " fill-rule="nonzero" fill="#797979" stroke="none" />
</svg>