<?xml version="1.0" encoding="utf-8"?>
<svg version="1.1" xmlns:xlink="http://www.w3.org/1999/xlink" width="12px" height="12px" viewBox="530 255  12 12" xmlns="http://www.w3.org/2000/svg">
  <path d="M 536 255  C 539.36 255  542 257.64  542 261  C 542 264.36  539.36 267  536 267  C 532.64 267  530 264.36  530 261  C 530 257.64  532.64 255  536 255  Z " fill-rule="nonzero" fill="#f0f0f0" stroke="none" />
  <path d="M 536 255.5  C 539.08 255.5  541.5 257.92  541.5 261  C 541.5 264.08  539.08 266.5  536 266.5  C 532.92 266.5  530.5 264.08  530.5 261  C 530.5 257.92  532.92 255.5  536 255.5  Z " stroke-width="1" stroke="#797979" fill="none" />
  <path d="M 536 264  C 534.32 264  533 262.68  533 261  C 533 259.32  534.32 258  536 258  C 537.68 258  539 259.32  539 261  C 539 262.68  537.68 264  536 264  " fill-rule="nonzero" fill="#797979" stroke="none" />
</svg>