<?xml version="1.0" encoding="utf-8"?>
<svg version="1.1" xmlns:xlink="http://www.w3.org/1999/xlink" width="12px" height="12px" viewBox="377 255  12 12" xmlns="http://www.w3.org/2000/svg">
  <path d="M 383 255  C 386.36 255  389 257.64  389 261  C 389 264.36  386.36 267  383 267  C 379.64 267  377 264.36  377 261  C 377 257.64  379.64 255  383 255  Z " fill-rule="nonzero" fill="#f0f0f0" stroke="none" />
  <path d="M 383 255.5  C 386.08 255.5  388.5 257.92  388.5 261  C 388.5 264.08  386.08 266.5  383 266.5  C 379.92 266.5  377.5 264.08  377.5 261  C 377.5 257.92  379.92 255.5  383 255.5  Z " stroke-width="1" stroke="#797979" fill="none" />
  <path d="M 383 264  C 381.32 264  380 262.68  380 261  C 380 259.32  381.32 258  383 258  C 384.68 258  386 259.32  386 261  C 386 262.68  384.68 264  383 264  " fill-rule="nonzero" fill="#797979" stroke="none" />
</svg>