<?xml version="1.0" encoding="utf-8"?>
<svg version="1.1" xmlns:xlink="http://www.w3.org/1999/xlink" width="12px" height="12px" viewBox="485 404  12 12" xmlns="http://www.w3.org/2000/svg">
  <path d="M 491 404  C 494.36 404  497 406.64  497 410  C 497 413.36  494.36 416  491 416  C 487.64 416  485 413.36  485 410  C 485 406.64  487.64 404  491 404  Z " fill-rule="nonzero" fill="#f0f0f0" stroke="none" />
  <path d="M 491 404.5  C 494.08 404.5  496.5 406.92  496.5 410  C 496.5 413.08  494.08 415.5  491 415.5  C 487.92 415.5  485.5 413.08  485.5 410  C 485.5 406.92  487.92 404.5  491 404.5  Z " stroke-width="1" stroke="#797979" fill="none" />
  <path d="M 491 413  C 489.32 413  488 411.68  488 410  C 488 408.32  489.32 407  491 407  C 492.68 407  494 408.32  494 410  C 494 411.68  492.68 413  491 413  " fill-rule="nonzero" fill="#797979" stroke="none" />
</svg>