<?xml version="1.0" encoding="utf-8"?>
<svg version="1.1" xmlns:xlink="http://www.w3.org/1999/xlink" width="12px" height="12px" viewBox="288 607  12 12" xmlns="http://www.w3.org/2000/svg">
  <path d="M 294 607  C 297.36 607  300 609.64  300 613  C 300 616.36  297.36 619  294 619  C 290.64 619  288 616.36  288 613  C 288 609.64  290.64 607  294 607  Z " fill-rule="nonzero" fill="#ffffff" stroke="none" />
  <path d="M 294 607.5  C 297.08 607.5  299.5 609.92  299.5 613  C 299.5 616.08  297.08 618.5  294 618.5  C 290.92 618.5  288.5 616.08  288.5 613  C 288.5 609.92  290.92 607.5  294 607.5  Z " stroke-width="1" stroke="#797979" fill="none" />
  <path d="M 294 616  C 292.32 616  291 614.68  291 613  C 291 611.32  292.32 610  294 610  C 295.68 610  297 611.32  297 613  C 297 614.68  295.68 616  294 616  " fill-rule="nonzero" fill="#797979" stroke="none" />
</svg>