<?xml version="1.0" encoding="utf-8"?>
<svg version="1.1" xmlns:xlink="http://www.w3.org/1999/xlink" width="12px" height="12px" viewBox="288 654  12 12" xmlns="http://www.w3.org/2000/svg">
  <path d="M 294 654  C 297.36 654  300 656.64  300 660  C 300 663.36  297.36 666  294 666  C 290.64 666  288 663.36  288 660  C 288 656.64  290.64 654  294 654  Z " fill-rule="nonzero" fill="#ffffff" stroke="none" />
  <path d="M 294 654.5  C 297.08 654.5  299.5 656.92  299.5 660  C 299.5 663.08  297.08 665.5  294 665.5  C 290.92 665.5  288.5 663.08  288.5 660  C 288.5 656.92  290.92 654.5  294 654.5  Z " stroke-width="1" stroke="#797979" fill="none" />
  <path d="M 294 663  C 292.32 663  291 661.68  291 660  C 291 658.32  292.32 657  294 657  C 295.68 657  297 658.32  297 660  C 297 661.68  295.68 663  294 663  " fill-rule="nonzero" fill="#797979" stroke="none" />
</svg>