<?xml version="1.0" encoding="utf-8"?>
<svg version="1.1" xmlns:xlink="http://www.w3.org/1999/xlink" width="12px" height="12px" viewBox="487 517  12 12" xmlns="http://www.w3.org/2000/svg">
  <path d="M 493 517  C 496.36 517  499 519.64  499 523  C 499 526.36  496.36 529  493 529  C 489.64 529  487 526.36  487 523  C 487 519.64  489.64 517  493 517  Z " fill-rule="nonzero" fill="#ffffff" stroke="none" />
  <path d="M 493 517.5  C 496.08 517.5  498.5 519.92  498.5 523  C 498.5 526.08  496.08 528.5  493 528.5  C 489.92 528.5  487.5 526.08  487.5 523  C 487.5 519.92  489.92 517.5  493 517.5  Z " stroke-width="1" stroke="#797979" fill="none" />
  <path d="M 493 526  C 491.32 526  490 524.68  490 523  C 490 521.32  491.32 520  493 520  C 494.68 520  496 521.32  496 523  C 496 524.68  494.68 526  493 526  " fill-rule="nonzero" fill="#797979" stroke="none" />
</svg>