<?xml version="1.0" encoding="utf-8"?>
<svg version="1.1" xmlns:xlink="http://www.w3.org/1999/xlink" width="12px" height="12px" viewBox="487 428  12 12" xmlns="http://www.w3.org/2000/svg">
  <path d="M 493 428  C 496.36 428  499 430.64  499 434  C 499 437.36  496.36 440  493 440  C 489.64 440  487 437.36  487 434  C 487 430.64  489.64 428  493 428  Z " fill-rule="nonzero" fill="#f0f0f0" stroke="none" />
  <path d="M 493 428.5  C 496.08 428.5  498.5 430.92  498.5 434  C 498.5 437.08  496.08 439.5  493 439.5  C 489.92 439.5  487.5 437.08  487.5 434  C 487.5 430.92  489.92 428.5  493 428.5  Z " stroke-width="1" stroke="#797979" fill="none" />
  <path d="M 493 437  C 491.32 437  490 435.68  490 434  C 490 432.32  491.32 431  493 431  C 494.68 431  496 432.32  496 434  C 496 435.68  494.68 437  493 437  " fill-rule="nonzero" fill="#797979" stroke="none" />
</svg>