<?xml version="1.0" encoding="utf-8"?>
<svg version="1.1" xmlns:xlink="http://www.w3.org/1999/xlink" width="12px" height="12px" viewBox="656 615  12 12" xmlns="http://www.w3.org/2000/svg">
  <path d="M 662 615  C 665.36 615  668 617.64  668 621  C 668 624.36  665.36 627  662 627  C 658.64 627  656 624.36  656 621  C 656 617.64  658.64 615  662 615  Z " fill-rule="nonzero" fill="#ffffff" stroke="none" />
  <path d="M 662 615.5  C 665.08 615.5  667.5 617.92  667.5 621  C 667.5 624.08  665.08 626.5  662 626.5  C 658.92 626.5  656.5 624.08  656.5 621  C 656.5 617.92  658.92 615.5  662 615.5  Z " stroke-width="1" stroke="#797979" fill="none" />
  <path d="M 662 624  C 660.32 624  659 622.68  659 621  C 659 619.32  660.32 618  662 618  C 663.68 618  665 619.32  665 621  C 665 622.68  663.68 624  662 624  " fill-rule="nonzero" fill="#797979" stroke="none" />
</svg>