<?xml version="1.0" encoding="utf-8"?>
<svg version="1.1" xmlns:xlink="http://www.w3.org/1999/xlink" width="14px" height="12px" xmlns="http://www.w3.org/2000/svg">
  <g transform="matrix(1 0 0 1 -357 -315 )">
    <path d="M 364 319  C 365.68 319  367 319.88  367 321  C 367 322.12  365.68 323  364 323  C 362.32 323  361 322.12  361 321  C 361 319.88  362.32 319  364 319  Z " fill-rule="nonzero" fill="#ffffff" stroke="none" />
    <path d="M 364 317.5  C 366.52 317.5  368.5 319.04  368.5 321  C 368.5 322.96  366.52 324.5  364 324.5  C 361.48 324.5  359.5 322.96  359.5 321  C 359.5 319.04  361.48 317.5  364 317.5  Z " stroke-width="5" stroke="#2e8ff4" fill="none" />
  </g>
</svg>