<?xml version="1.0" encoding="utf-8"?>
<svg version="1.1" xmlns:xlink="http://www.w3.org/1999/xlink" width="12px" height="12px" viewBox="477 141  12 12" xmlns="http://www.w3.org/2000/svg">
  <path d="M 483 141  C 486.36 141  489 143.64  489 147  C 489 150.36  486.36 153  483 153  C 479.64 153  477 150.36  477 147  C 477 143.64  479.64 141  483 141  Z " fill-rule="nonzero" fill="#ffffff" stroke="none" />
  <path d="M 483 141.5  C 486.08 141.5  488.5 143.92  488.5 147  C 488.5 150.08  486.08 152.5  483 152.5  C 479.92 152.5  477.5 150.08  477.5 147  C 477.5 143.92  479.92 141.5  483 141.5  Z " stroke-width="1" stroke="#797979" fill="none" />
  <path d="M 483 150  C 481.32 150  480 148.68  480 147  C 480 145.32  481.32 144  483 144  C 484.68 144  486 145.32  486 147  C 486 148.68  484.68 150  483 150  " fill-rule="nonzero" fill="#797979" stroke="none" />
</svg>