<?xml version="1.0" encoding="utf-8"?>
<svg version="1.1" xmlns:xlink="http://www.w3.org/1999/xlink" width="12px" height="12px" viewBox="477 24  12 12" xmlns="http://www.w3.org/2000/svg">
  <path d="M 483 24  C 486.36 24  489 26.64  489 30  C 489 33.36  486.36 36  483 36  C 479.64 36  477 33.36  477 30  C 477 26.64  479.64 24  483 24  Z " fill-rule="nonzero" fill="#ffffff" stroke="none" />
  <path d="M 483 24.5  C 486.08 24.5  488.5 26.92  488.5 30  C 488.5 33.08  486.08 35.5  483 35.5  C 479.92 35.5  477.5 33.08  477.5 30  C 477.5 26.92  479.92 24.5  483 24.5  Z " stroke-width="1" stroke="#797979" fill="none" />
  <path d="M 483 33  C 481.32 33  480 31.68  480 30  C 480 28.32  481.32 27  483 27  C 484.68 27  486 28.32  486 30  C 486 31.68  484.68 33  483 33  " fill-rule="nonzero" fill="#797979" stroke="none" />
</svg>