<?xml version="1.0" encoding="utf-8"?>
<svg version="1.1" xmlns:xlink="http://www.w3.org/1999/xlink" width="12px" height="12px" viewBox="436 405  12 12" xmlns="http://www.w3.org/2000/svg">
  <path d="M 442 405  C 445.36 405  448 407.64  448 411  C 448 414.36  445.36 417  442 417  C 438.64 417  436 414.36  436 411  C 436 407.64  438.64 405  442 405  Z " fill-rule="nonzero" fill="#ffffff" stroke="none" />
  <path d="M 442 405.5  C 445.08 405.5  447.5 407.92  447.5 411  C 447.5 414.08  445.08 416.5  442 416.5  C 438.92 416.5  436.5 414.08  436.5 411  C 436.5 407.92  438.92 405.5  442 405.5  Z " stroke-width="1" stroke="#797979" fill="none" />
  <path d="M 442 414  C 440.32 414  439 412.68  439 411  C 439 409.32  440.32 408  442 408  C 443.68 408  445 409.32  445 411  C 445 412.68  443.68 414  442 414  " fill-rule="nonzero" fill="#797979" stroke="none" />
</svg>