<?xml version="1.0" encoding="utf-8"?>
<svg version="1.1" xmlns:xlink="http://www.w3.org/1999/xlink" width="12px" height="12px" viewBox="522 357  12 12" xmlns="http://www.w3.org/2000/svg">
  <path d="M 528 357  C 531.36 357  534 359.64  534 363  C 534 366.36  531.36 369  528 369  C 524.64 369  522 366.36  522 363  C 522 359.64  524.64 357  528 357  Z " fill-rule="nonzero" fill="#ffffff" stroke="none" />
  <path d="M 528 357.5  C 531.08 357.5  533.5 359.92  533.5 363  C 533.5 366.08  531.08 368.5  528 368.5  C 524.92 368.5  522.5 366.08  522.5 363  C 522.5 359.92  524.92 357.5  528 357.5  Z " stroke-width="1" stroke="#797979" fill="none" />
  <path d="M 528 366  C 526.32 366  525 364.68  525 363  C 525 361.32  526.32 360  528 360  C 529.68 360  531 361.32  531 363  C 531 364.68  529.68 366  528 366  " fill-rule="nonzero" fill="#797979" stroke="none" />
</svg>