<?xml version="1.0" encoding="utf-8"?>
<svg version="1.1" xmlns:xlink="http://www.w3.org/1999/xlink" width="12px" height="12px" viewBox="502 433  12 12" xmlns="http://www.w3.org/2000/svg">
  <path d="M 508 433  C 511.36 433  514 435.64  514 439  C 514 442.36  511.36 445  508 445  C 504.64 445  502 442.36  502 439  C 502 435.64  504.64 433  508 433  Z " fill-rule="nonzero" fill="#f0f0f0" stroke="none" />
  <path d="M 508 433.5  C 511.08 433.5  513.5 435.92  513.5 439  C 513.5 442.08  511.08 444.5  508 444.5  C 504.92 444.5  502.5 442.08  502.5 439  C 502.5 435.92  504.92 433.5  508 433.5  Z " stroke-width="1" stroke="#797979" fill="none" />
  <path d="M 508 442  C 506.32 442  505 440.68  505 439  C 505 437.32  506.32 436  508 436  C 509.68 436  511 437.32  511 439  C 511 440.68  509.68 442  508 442  " fill-rule="nonzero" fill="#797979" stroke="none" />
</svg>