<?xml version="1.0" encoding="utf-8"?>
<svg version="1.1" xmlns:xlink="http://www.w3.org/1999/xlink" width="12px" height="12px" viewBox="488 395  12 12" xmlns="http://www.w3.org/2000/svg">
  <path d="M 494 395  C 497.36 395  500 397.64  500 401  C 500 404.36  497.36 407  494 407  C 490.64 407  488 404.36  488 401  C 488 397.64  490.64 395  494 395  Z " fill-rule="nonzero" fill="#f0f0f0" stroke="none" />
  <path d="M 494 395.5  C 497.08 395.5  499.5 397.92  499.5 401  C 499.5 404.08  497.08 406.5  494 406.5  C 490.92 406.5  488.5 404.08  488.5 401  C 488.5 397.92  490.92 395.5  494 395.5  Z " stroke-width="1" stroke="#797979" fill="none" />
  <path d="M 494 404  C 492.32 404  491 402.68  491 401  C 491 399.32  492.32 398  494 398  C 495.68 398  497 399.32  497 401  C 497 402.68  495.68 404  494 404  " fill-rule="nonzero" fill="#797979" stroke="none" />
</svg>