<?xml version="1.0" encoding="utf-8"?>
<svg version="1.1" xmlns:xlink="http://www.w3.org/1999/xlink" width="12px" height="12px" viewBox="99 85  12 12" xmlns="http://www.w3.org/2000/svg">
  <path d="M 105 85  C 108.36 85  111 87.64  111 91  C 111 94.36  108.36 97  105 97  C 101.64 97  99 94.36  99 91  C 99 87.64  101.64 85  105 85  Z " fill-rule="nonzero" fill="#ffffff" stroke="none" />
  <path d="M 105 85.5  C 108.08 85.5  110.5 87.92  110.5 91  C 110.5 94.08  108.08 96.5  105 96.5  C 101.92 96.5  99.5 94.08  99.5 91  C 99.5 87.92  101.92 85.5  105 85.5  Z " stroke-width="1" stroke="#797979" fill="none" />
  <path d="M 105 94  C 103.32 94  102 92.68  102 91  C 102 89.32  103.32 88  105 88  C 106.68 88  108 89.32  108 91  C 108 92.68  106.68 94  105 94  " fill-rule="nonzero" fill="#797979" stroke="none" />
</svg>