<?xml version="1.0" encoding="utf-8"?>
<svg version="1.1" xmlns:xlink="http://www.w3.org/1999/xlink" width="12px" height="12px" viewBox="99 13  12 12" xmlns="http://www.w3.org/2000/svg">
  <path d="M 105 13  C 108.36 13  111 15.64  111 19  C 111 22.36  108.36 25  105 25  C 101.64 25  99 22.36  99 19  C 99 15.64  101.64 13  105 13  Z " fill-rule="nonzero" fill="#ffffff" stroke="none" />
  <path d="M 105 13.5  C 108.08 13.5  110.5 15.92  110.5 19  C 110.5 22.08  108.08 24.5  105 24.5  C 101.92 24.5  99.5 22.08  99.5 19  C 99.5 15.92  101.92 13.5  105 13.5  Z " stroke-width="1" stroke="#797979" fill="none" />
  <path d="M 105 22  C 103.32 22  102 20.68  102 19  C 102 17.32  103.32 16  105 16  C 106.68 16  108 17.32  108 19  C 108 20.68  106.68 22  105 22  " fill-rule="nonzero" fill="#797979" stroke="none" />
</svg>