<?xml version="1.0" encoding="utf-8"?>
<svg version="1.1" xmlns:xlink="http://www.w3.org/1999/xlink" width="12px" height="12px" viewBox="99 50  12 12" xmlns="http://www.w3.org/2000/svg">
  <path d="M 105 50  C 108.36 50  111 52.64  111 56  C 111 59.36  108.36 62  105 62  C 101.64 62  99 59.36  99 56  C 99 52.64  101.64 50  105 50  Z " fill-rule="nonzero" fill="#f0f0f0" stroke="none" />
  <path d="M 105 50.5  C 108.08 50.5  110.5 52.92  110.5 56  C 110.5 59.08  108.08 61.5  105 61.5  C 101.92 61.5  99.5 59.08  99.5 56  C 99.5 52.92  101.92 50.5  105 50.5  Z " stroke-width="1" stroke="#797979" fill="none" />
  <path d="M 105 59  C 103.32 59  102 57.68  102 56  C 102 54.32  103.32 53  105 53  C 106.68 53  108 54.32  108 56  C 108 57.68  106.68 59  105 59  " fill-rule="nonzero" fill="#797979" stroke="none" />
</svg>