<?xml version="1.0" encoding="utf-8"?>
<svg version="1.1" xmlns:xlink="http://www.w3.org/1999/xlink" width="12px" height="12px" viewBox="218 368  12 12" xmlns="http://www.w3.org/2000/svg">
  <path d="M 224 368  C 227.36 368  230 370.64  230 374  C 230 377.36  227.36 380  224 380  C 220.64 380  218 377.36  218 374  C 218 370.64  220.64 368  224 368  Z " fill-rule="nonzero" fill="#ffffff" stroke="none" />
  <path d="M 224 368.5  C 227.08 368.5  229.5 370.92  229.5 374  C 229.5 377.08  227.08 379.5  224 379.5  C 220.92 379.5  218.5 377.08  218.5 374  C 218.5 370.92  220.92 368.5  224 368.5  Z " stroke-width="1" stroke="#797979" fill="none" />
  <path d="M 224 377  C 222.32 377  221 375.68  221 374  C 221 372.32  222.32 371  224 371  C 225.68 371  227 372.32  227 374  C 227 375.68  225.68 377  224 377  " fill-rule="nonzero" fill="#797979" stroke="none" />
</svg>