<?xml version="1.0" encoding="utf-8"?>
<svg version="1.1" xmlns:xlink="http://www.w3.org/1999/xlink" width="12px" height="12px" viewBox="299 626  12 12" xmlns="http://www.w3.org/2000/svg">
  <path d="M 305 626  C 308.36 626  311 628.64  311 632  C 311 635.36  308.36 638  305 638  C 301.64 638  299 635.36  299 632  C 299 628.64  301.64 626  305 626  Z " fill-rule="nonzero" fill="#f0f0f0" stroke="none" />
  <path d="M 305 626.5  C 308.08 626.5  310.5 628.92  310.5 632  C 310.5 635.08  308.08 637.5  305 637.5  C 301.92 637.5  299.5 635.08  299.5 632  C 299.5 628.92  301.92 626.5  305 626.5  Z " stroke-width="1" stroke="#797979" fill="none" />
  <path d="M 305 635  C 303.32 635  302 633.68  302 632  C 302 630.32  303.32 629  305 629  C 306.68 629  308 630.32  308 632  C 308 633.68  306.68 635  305 635  " fill-rule="nonzero" fill="#797979" stroke="none" />
</svg>