<?xml version="1.0" encoding="utf-8"?>
<svg version="1.1" xmlns:xlink="http://www.w3.org/1999/xlink" width="12px" height="12px" viewBox="321 368  12 12" xmlns="http://www.w3.org/2000/svg">
  <path d="M 327 368  C 330.36 368  333 370.64  333 374  C 333 377.36  330.36 380  327 380  C 323.64 380  321 377.36  321 374  C 321 370.64  323.64 368  327 368  Z " fill-rule="nonzero" fill="#ffffff" stroke="none" />
  <path d="M 327 368.5  C 330.08 368.5  332.5 370.92  332.5 374  C 332.5 377.08  330.08 379.5  327 379.5  C 323.92 379.5  321.5 377.08  321.5 374  C 321.5 370.92  323.92 368.5  327 368.5  Z " stroke-width="1" stroke="#797979" fill="none" />
  <path d="M 327 377  C 325.32 377  324 375.68  324 374  C 324 372.32  325.32 371  327 371  C 328.68 371  330 372.32  330 374  C 330 375.68  328.68 377  327 377  " fill-rule="nonzero" fill="#797979" stroke="none" />
</svg>