<?xml version="1.0" encoding="utf-8"?>
<svg version="1.1" xmlns:xlink="http://www.w3.org/1999/xlink" width="12px" height="12px" viewBox="197 901  12 12" xmlns="http://www.w3.org/2000/svg">
  <path d="M 203 901  C 206.36 901  209 903.64  209 907  C 209 910.36  206.36 913  203 913  C 199.64 913  197 910.36  197 907  C 197 903.64  199.64 901  203 901  Z " fill-rule="nonzero" fill="#f0f0f0" stroke="none" />
  <path d="M 203 901.5  C 206.08 901.5  208.5 903.92  208.5 907  C 208.5 910.08  206.08 912.5  203 912.5  C 199.92 912.5  197.5 910.08  197.5 907  C 197.5 903.92  199.92 901.5  203 901.5  Z " stroke-width="1" stroke="#797979" fill="none" />
  <path d="M 203 910  C 201.32 910  200 908.68  200 907  C 200 905.32  201.32 904  203 904  C 204.68 904  206 905.32  206 907  C 206 908.68  204.68 910  203 910  " fill-rule="nonzero" fill="#797979" stroke="none" />
</svg>