<?xml version="1.0" encoding="utf-8"?>
<svg version="1.1" xmlns:xlink="http://www.w3.org/1999/xlink" width="12px" height="12px" viewBox="113 237  12 12" xmlns="http://www.w3.org/2000/svg">
  <path d="M 119 237  C 122.36 237  125 239.64  125 243  C 125 246.36  122.36 249  119 249  C 115.64 249  113 246.36  113 243  C 113 239.64  115.64 237  119 237  Z " fill-rule="nonzero" fill="#ffffff" stroke="none" />
  <path d="M 119 237.5  C 122.08 237.5  124.5 239.92  124.5 243  C 124.5 246.08  122.08 248.5  119 248.5  C 115.92 248.5  113.5 246.08  113.5 243  C 113.5 239.92  115.92 237.5  119 237.5  Z " stroke-width="1" stroke="#797979" fill="none" />
  <path d="M 119 246  C 117.32 246  116 244.68  116 243  C 116 241.32  117.32 240  119 240  C 120.68 240  122 241.32  122 243  C 122 244.68  120.68 246  119 246  " fill-rule="nonzero" fill="#797979" stroke="none" />
</svg>