<?xml version="1.0" encoding="utf-8"?>
<svg version="1.1" xmlns:xlink="http://www.w3.org/1999/xlink" width="9px" height="6px" xmlns="http://www.w3.org/2000/svg">
  <g transform="matrix(1 0 0 1 -1094 -687 )">
    <path d="M 8.90981963927857 0.618556701030911  C 8.96993987975952 0.687285223367553  9 0.766323024055055  9 0.855670103092734  C 9 0.945017182130641  8.96993987975952 1.0240549828178  8.90981963927857 1.09278350515467  L 4.70741482965923 5.89690721649481  C 4.6472945891785 5.96563573883157  4.57815631262542 6  4.5 6  C 4.42184368737458 6  4.3527054108215 5.96563573883157  4.29258517034077 5.89690721649481  L 0.0901803607214333 1.09278350515467  C 0.0300601202404778 1.0240549828178  0 0.945017182130641  0 0.855670103092734  C 0 0.766323024055055  0.0300601202404778 0.687285223367553  0.0901803607214333 0.618556701030911  L 0.5410821643286 0.10309278350519  C 0.601202404809555 0.0343642611684345  0.670340681362632 0  0.748496993987828 0  C 0.826653306613252 0  0.895791583166329 0.0343642611684345  0.955911823647284 0.10309278350519  L 4.5 4.15463917525778  L 8.04408817635272 0.10309278350519  C 8.10420841683367 0.0343642611684345  8.17334669338675 0  8.25150300601217 0  C 8.32965931863737 0  8.39879759519044 0.0343642611684345  8.4589178356714 0.10309278350519  L 8.90981963927857 0.618556701030911  Z " fill-rule="nonzero" fill="#dcdfe6" stroke="none" transform="matrix(1 0 0 1 1094 687 )" />
  </g>
</svg>