<?xml version="1.0" encoding="utf-8"?>
<svg version="1.1" xmlns:xlink="http://www.w3.org/1999/xlink" width="12px" height="12px" viewBox="512 423  12 12" xmlns="http://www.w3.org/2000/svg">
  <path d="M 518 423  C 521.36 423  524 425.64  524 429  C 524 432.36  521.36 435  518 435  C 514.64 435  512 432.36  512 429  C 512 425.64  514.64 423  518 423  Z " fill-rule="nonzero" fill="#f0f0f0" stroke="none" />
  <path d="M 518 423.5  C 521.08 423.5  523.5 425.92  523.5 429  C 523.5 432.08  521.08 434.5  518 434.5  C 514.92 434.5  512.5 432.08  512.5 429  C 512.5 425.92  514.92 423.5  518 423.5  Z " stroke-width="1" stroke="#797979" fill="none" />
  <path d="M 518 432  C 516.32 432  515 430.68  515 429  C 515 427.32  516.32 426  518 426  C 519.68 426  521 427.32  521 429  C 521 430.68  519.68 432  518 432  " fill-rule="nonzero" fill="#797979" stroke="none" />
</svg>