<?xml version="1.0" encoding="utf-8"?>
<svg version="1.1" xmlns:xlink="http://www.w3.org/1999/xlink" width="12px" height="12px" viewBox="924 423  12 12" xmlns="http://www.w3.org/2000/svg">
  <path d="M 930 423  C 933.36 423  936 425.64  936 429  C 936 432.36  933.36 435  930 435  C 926.64 435  924 432.36  924 429  C 924 425.64  926.64 423  930 423  Z " fill-rule="nonzero" fill="#f0f0f0" stroke="none" />
  <path d="M 930 423.5  C 933.08 423.5  935.5 425.92  935.5 429  C 935.5 432.08  933.08 434.5  930 434.5  C 926.92 434.5  924.5 432.08  924.5 429  C 924.5 425.92  926.92 423.5  930 423.5  Z " stroke-width="1" stroke="#797979" fill="none" />
  <path d="M 930 432  C 928.32 432  927 430.68  927 429  C 927 427.32  928.32 426  930 426  C 931.68 426  933 427.32  933 429  C 933 430.68  931.68 432  930 432  " fill-rule="nonzero" fill="#797979" stroke="none" />
</svg>