<?xml version="1.0" encoding="utf-8"?>
<svg version="1.1" xmlns:xlink="http://www.w3.org/1999/xlink" width="12px" height="12px" viewBox="431 423  12 12" xmlns="http://www.w3.org/2000/svg">
  <path d="M 437 423  C 440.36 423  443 425.64  443 429  C 443 432.36  440.36 435  437 435  C 433.64 435  431 432.36  431 429  C 431 425.64  433.64 423  437 423  Z " fill-rule="nonzero" fill="#ffffff" stroke="none" />
  <path d="M 437 423.5  C 440.08 423.5  442.5 425.92  442.5 429  C 442.5 432.08  440.08 434.5  437 434.5  C 433.92 434.5  431.5 432.08  431.5 429  C 431.5 425.92  433.92 423.5  437 423.5  Z " stroke-width="1" stroke="#797979" fill="none" />
  <path d="M 437 432  C 435.32 432  434 430.68  434 429  C 434 427.32  435.32 426  437 426  C 438.68 426  440 427.32  440 429  C 440 430.68  438.68 432  437 432  " fill-rule="nonzero" fill="#797979" stroke="none" />
</svg>