<?xml version="1.0" encoding="utf-8"?>
<svg version="1.1" xmlns:xlink="http://www.w3.org/1999/xlink" width="12px" height="12px" viewBox="757 423  12 12" xmlns="http://www.w3.org/2000/svg">
  <path d="M 763 423  C 766.36 423  769 425.64  769 429  C 769 432.36  766.36 435  763 435  C 759.64 435  757 432.36  757 429  C 757 425.64  759.64 423  763 423  Z " fill-rule="nonzero" fill="#f0f0f0" stroke="none" />
  <path d="M 763 423.5  C 766.08 423.5  768.5 425.92  768.5 429  C 768.5 432.08  766.08 434.5  763 434.5  C 759.92 434.5  757.5 432.08  757.5 429  C 757.5 425.92  759.92 423.5  763 423.5  Z " stroke-width="1" stroke="#797979" fill="none" />
  <path d="M 763 432  C 761.32 432  760 430.68  760 429  C 760 427.32  761.32 426  763 426  C 764.68 426  766 427.32  766 429  C 766 430.68  764.68 432  763 432  " fill-rule="nonzero" fill="#797979" stroke="none" />
</svg>