<?xml version="1.0" encoding="utf-8"?>
<svg version="1.1" xmlns:xlink="http://www.w3.org/1999/xlink" width="12px" height="12px" viewBox="594 423  12 12" xmlns="http://www.w3.org/2000/svg">
  <path d="M 600 423  C 603.36 423  606 425.64  606 429  C 606 432.36  603.36 435  600 435  C 596.64 435  594 432.36  594 429  C 594 425.64  596.64 423  600 423  Z " fill-rule="nonzero" fill="#f0f0f0" stroke="none" />
  <path d="M 600 423.5  C 603.08 423.5  605.5 425.92  605.5 429  C 605.5 432.08  603.08 434.5  600 434.5  C 596.92 434.5  594.5 432.08  594.5 429  C 594.5 425.92  596.92 423.5  600 423.5  Z " stroke-width="1" stroke="#797979" fill="none" />
  <path d="M 600 432  C 598.32 432  597 430.68  597 429  C 597 427.32  598.32 426  600 426  C 601.68 426  603 427.32  603 429  C 603 430.68  601.68 432  600 432  " fill-rule="nonzero" fill="#797979" stroke="none" />
</svg>