<?xml version="1.0" encoding="utf-8"?>
<svg version="1.1" xmlns:xlink="http://www.w3.org/1999/xlink" width="12px" height="12px" viewBox="427 356  12 12" xmlns="http://www.w3.org/2000/svg">
  <path d="M 433 356  C 436.36 356  439 358.64  439 362  C 439 365.36  436.36 368  433 368  C 429.64 368  427 365.36  427 362  C 427 358.64  429.64 356  433 356  Z " fill-rule="nonzero" fill="#f0f0f0" stroke="none" />
  <path d="M 433 356.5  C 436.08 356.5  438.5 358.92  438.5 362  C 438.5 365.08  436.08 367.5  433 367.5  C 429.92 367.5  427.5 365.08  427.5 362  C 427.5 358.92  429.92 356.5  433 356.5  Z " stroke-width="1" stroke="#797979" fill="none" />
  <path d="M 433 365  C 431.32 365  430 363.68  430 362  C 430 360.32  431.32 359  433 359  C 434.68 359  436 360.32  436 362  C 436 363.68  434.68 365  433 365  " fill-rule="nonzero" fill="#797979" stroke="none" />
</svg>