<?xml version="1.0" encoding="utf-8"?>
<svg version="1.1" xmlns:xlink="http://www.w3.org/1999/xlink" width="316px" height="345px" xmlns="http://www.w3.org/2000/svg">
  <g transform="matrix(1 0 0 1 -349 -313 )">
    <path d="M 349.5 641.546242774567  C 349.5 641.546242774567  349.5 313.5  349.5 313.5  C 349.5 313.5  664.5 313.5  664.5 313.5  C 664.5 313.5  664.5 641.546242774567  664.5 641.546242774567  C 664.5 641.546242774567  619.535508835884 641.546242774567  619.535508835884 641.546242774567  C 619.535508835884 641.546242774567  611.348142270853 655.756776996996  611.348142270853 655.756776996996  C 611.348142270853 655.756776996996  600.065940288483 641.546242774567  600.065940288483 641.546242774567  C 600.065940288483 641.546242774567  349.5 641.546242774567  349.5 641.546242774567  Z " fill-rule="nonzero" fill="#ffffff" stroke="none" />
    <path d="M 349 642.046242774567  C 349 642.046242774567  349 313  349 313  C 349 313  665 313  665 313  C 665 313  665 642.046242774567  665 642.046242774567  C 665 642.046242774567  619.824484848485 642.046242774567  619.824484848485 642.046242774567  C 619.824484848485 642.046242774567  611.41406060606 656.643930635838  611.41406060606 656.643930635838  C 611.41406060606 656.643930635838  599.824484848485 642.046242774567  599.824484848485 642.046242774567  C 599.824484848485 642.046242774567  349 642.046242774567  349 642.046242774567  Z M 350 641.046242774567  C 350 641.046242774567  600.30739572848 641.046242774567  600.30739572848 641.046242774567  C 600.30739572848 641.046242774567  611.282223935646 654.869623358154  611.282223935646 654.869623358154  C 611.282223935646 654.869623358154  619.246532823282 641.046242774567  619.246532823282 641.046242774567  C 619.246532823282 641.046242774567  664 641.046242774567  664 641.046242774567  C 664 641.046242774567  664 314  664 314  C 664 314  350 314  350 314  C 350 314  350 641.046242774567  350 641.046242774567  Z " fill-rule="nonzero" fill="#d7d7d7" stroke="none" />
  </g>
</svg>