<?xml version="1.0" encoding="utf-8"?>
<svg version="1.1" xmlns:xlink="http://www.w3.org/1999/xlink" width="12px" height="12px" viewBox="155 363  12 12" xmlns="http://www.w3.org/2000/svg">
  <path d="M 161 363  C 164.36 363  167 365.64  167 369  C 167 372.36  164.36 375  161 375  C 157.64 375  155 372.36  155 369  C 155 365.64  157.64 363  161 363  Z " fill-rule="nonzero" fill="#ffffff" stroke="none" />
  <path d="M 161 363.5  C 164.08 363.5  166.5 365.92  166.5 369  C 166.5 372.08  164.08 374.5  161 374.5  C 157.92 374.5  155.5 372.08  155.5 369  C 155.5 365.92  157.92 363.5  161 363.5  Z " stroke-width="1" stroke="#797979" fill="none" />
  <path d="M 161 372  C 159.32 372  158 370.68  158 369  C 158 367.32  159.32 366  161 366  C 162.68 366  164 367.32  164 369  C 164 370.68  162.68 372  161 372  " fill-rule="nonzero" fill="#797979" stroke="none" />
</svg>