<?xml version="1.0" encoding="utf-8"?>
<svg version="1.1" xmlns:xlink="http://www.w3.org/1999/xlink" width="12px" height="12px" viewBox="525 343  12 12" xmlns="http://www.w3.org/2000/svg">
  <path d="M 531 343  C 534.36 343  537 345.64  537 349  C 537 352.36  534.36 355  531 355  C 527.64 355  525 352.36  525 349  C 525 345.64  527.64 343  531 343  Z " fill-rule="nonzero" fill="#f0f0f0" stroke="none" />
  <path d="M 531 343.5  C 534.08 343.5  536.5 345.92  536.5 349  C 536.5 352.08  534.08 354.5  531 354.5  C 527.92 354.5  525.5 352.08  525.5 349  C 525.5 345.92  527.92 343.5  531 343.5  Z " stroke-width="1" stroke="#797979" fill="none" />
  <path d="M 531 352  C 529.32 352  528 350.68  528 349  C 528 347.32  529.32 346  531 346  C 532.68 346  534 347.32  534 349  C 534 350.68  532.68 352  531 352  " fill-rule="nonzero" fill="#797979" stroke="none" />
</svg>