<?xml version="1.0" encoding="utf-8"?>
<svg version="1.1" xmlns:xlink="http://www.w3.org/1999/xlink" width="12px" height="12px" viewBox="477 22  12 12" xmlns="http://www.w3.org/2000/svg">
  <path d="M 483 22  C 486.36 22  489 24.64  489 28  C 489 31.36  486.36 34  483 34  C 479.64 34  477 31.36  477 28  C 477 24.64  479.64 22  483 22  Z " fill-rule="nonzero" fill="#ffffff" stroke="none" />
  <path d="M 483 22.5  C 486.08 22.5  488.5 24.92  488.5 28  C 488.5 31.08  486.08 33.5  483 33.5  C 479.92 33.5  477.5 31.08  477.5 28  C 477.5 24.92  479.92 22.5  483 22.5  Z " stroke-width="1" stroke="#797979" fill="none" />
  <path d="M 483 31  C 481.32 31  480 29.68  480 28  C 480 26.32  481.32 25  483 25  C 484.68 25  486 26.32  486 28  C 486 29.68  484.68 31  483 31  " fill-rule="nonzero" fill="#797979" stroke="none" />
</svg>