<?xml version="1.0" encoding="utf-8"?>
<svg version="1.1" xmlns:xlink="http://www.w3.org/1999/xlink" width="12px" height="12px" viewBox="477 206  12 12" xmlns="http://www.w3.org/2000/svg">
  <path d="M 483 206  C 486.36 206  489 208.64  489 212  C 489 215.36  486.36 218  483 218  C 479.64 218  477 215.36  477 212  C 477 208.64  479.64 206  483 206  Z " fill-rule="nonzero" fill="#ffffff" stroke="none" />
  <path d="M 483 206.5  C 486.08 206.5  488.5 208.92  488.5 212  C 488.5 215.08  486.08 217.5  483 217.5  C 479.92 217.5  477.5 215.08  477.5 212  C 477.5 208.92  479.92 206.5  483 206.5  Z " stroke-width="1" stroke="#797979" fill="none" />
  <path d="M 483 215  C 481.32 215  480 213.68  480 212  C 480 210.32  481.32 209  483 209  C 484.68 209  486 210.32  486 212  C 486 213.68  484.68 215  483 215  " fill-rule="nonzero" fill="#797979" stroke="none" />
</svg>