<?xml version="1.0" encoding="utf-8"?>
<svg version="1.1" xmlns:xlink="http://www.w3.org/1999/xlink" width="12px" height="12px" viewBox="477 167  12 12" xmlns="http://www.w3.org/2000/svg">
  <path d="M 483 167  C 486.36 167  489 169.64  489 173  C 489 176.36  486.36 179  483 179  C 479.64 179  477 176.36  477 173  C 477 169.64  479.64 167  483 167  Z " fill-rule="nonzero" fill="#f0f0f0" stroke="none" />
  <path d="M 483 167.5  C 486.08 167.5  488.5 169.92  488.5 173  C 488.5 176.08  486.08 178.5  483 178.5  C 479.92 178.5  477.5 176.08  477.5 173  C 477.5 169.92  479.92 167.5  483 167.5  Z " stroke-width="1" stroke="#797979" fill="none" />
  <path d="M 483 176  C 481.32 176  480 174.68  480 173  C 480 171.32  481.32 170  483 170  C 484.68 170  486 171.32  486 173  C 486 174.68  484.68 176  483 176  " fill-rule="nonzero" fill="#797979" stroke="none" />
</svg>