<?xml version="1.0" encoding="utf-8"?>
<svg version="1.1" xmlns:xlink="http://www.w3.org/1999/xlink" width="12px" height="12px" viewBox="477 90  12 12" xmlns="http://www.w3.org/2000/svg">
  <path d="M 483 90  C 486.36 90  489 92.64  489 96  C 489 99.36  486.36 102  483 102  C 479.64 102  477 99.36  477 96  C 477 92.64  479.64 90  483 90  Z " fill-rule="nonzero" fill="#ffffff" stroke="none" />
  <path d="M 483 90.5  C 486.08 90.5  488.5 92.92  488.5 96  C 488.5 99.08  486.08 101.5  483 101.5  C 479.92 101.5  477.5 99.08  477.5 96  C 477.5 92.92  479.92 90.5  483 90.5  Z " stroke-width="1" stroke="#797979" fill="none" />
  <path d="M 483 99  C 481.32 99  480 97.68  480 96  C 480 94.32  481.32 93  483 93  C 484.68 93  486 94.32  486 96  C 486 97.68  484.68 99  483 99  " fill-rule="nonzero" fill="#797979" stroke="none" />
</svg>