<?xml version="1.0" encoding="utf-8"?>
<svg version="1.1" xmlns:xlink="http://www.w3.org/1999/xlink" width="48px" height="32px" xmlns="http://www.w3.org/2000/svg">
  <g transform="matrix(1 0 0 1 -148 -279 )">
    <path d="M 149 283  A 3 3 0 0 1 152 280 L 192 280  A 3 3 0 0 1 195 283 L 195 307  A 3 3 0 0 1 192 310 L 152 310  A 3 3 0 0 1 149 307 L 149 283  Z " fill-rule="nonzero" fill="#909399" stroke="none" fill-opacity="0.0980392156862745" />
    <path d="M 148.5 283  A 3.5 3.5 0 0 1 152 279.5 L 192 279.5  A 3.5 3.5 0 0 1 195.5 283 L 195.5 307  A 3.5 3.5 0 0 1 192 310.5 L 152 310.5  A 3.5 3.5 0 0 1 148.5 307 L 148.5 283  Z " stroke-width="1" stroke="#909399" fill="none" stroke-opacity="0.2" />
  </g>
</svg>