<?xml version="1.0" encoding="utf-8"?>
<svg version="1.1" xmlns:xlink="http://www.w3.org/1999/xlink" width="12px" height="12px" viewBox="382 351  12 12" xmlns="http://www.w3.org/2000/svg">
  <path d="M 388 351  C 391.36 351  394 353.64  394 357  C 394 360.36  391.36 363  388 363  C 384.64 363  382 360.36  382 357  C 382 353.64  384.64 351  388 351  Z " fill-rule="nonzero" fill="#ffffff" stroke="none" />
  <path d="M 388 351.5  C 391.08 351.5  393.5 353.92  393.5 357  C 393.5 360.08  391.08 362.5  388 362.5  C 384.92 362.5  382.5 360.08  382.5 357  C 382.5 353.92  384.92 351.5  388 351.5  Z " stroke-width="1" stroke="#797979" fill="none" />
  <path d="M 388 360  C 386.32 360  385 358.68  385 357  C 385 355.32  386.32 354  388 354  C 389.68 354  391 355.32  391 357  C 391 358.68  389.68 360  388 360  " fill-rule="nonzero" fill="#797979" stroke="none" />
</svg>