<?xml version="1.0" encoding="utf-8"?>
<svg version="1.1" xmlns:xlink="http://www.w3.org/1999/xlink" width="12px" height="12px" viewBox="458 354  12 12" xmlns="http://www.w3.org/2000/svg">
  <path d="M 464 354  C 467.36 354  470 356.64  470 360  C 470 363.36  467.36 366  464 366  C 460.64 366  458 363.36  458 360  C 458 356.64  460.64 354  464 354  Z " fill-rule="nonzero" fill="#ffffff" stroke="none" />
  <path d="M 464 354.5  C 467.08 354.5  469.5 356.92  469.5 360  C 469.5 363.08  467.08 365.5  464 365.5  C 460.92 365.5  458.5 363.08  458.5 360  C 458.5 356.92  460.92 354.5  464 354.5  Z " stroke-width="1" stroke="#797979" fill="none" />
  <path d="M 464 363  C 462.32 363  461 361.68  461 360  C 461 358.32  462.32 357  464 357  C 465.68 357  467 358.32  467 360  C 467 361.68  465.68 363  464 363  " fill-rule="nonzero" fill="#797979" stroke="none" />
</svg>