<?xml version="1.0" encoding="utf-8"?>
<svg version="1.1" xmlns:xlink="http://www.w3.org/1999/xlink" width="12px" height="12px" viewBox="458 439  12 12" xmlns="http://www.w3.org/2000/svg">
  <path d="M 464 439  C 467.36 439  470 441.64  470 445  C 470 448.36  467.36 451  464 451  C 460.64 451  458 448.36  458 445  C 458 441.64  460.64 439  464 439  Z " fill-rule="nonzero" fill="#ffffff" stroke="none" />
  <path d="M 464 439.5  C 467.08 439.5  469.5 441.92  469.5 445  C 469.5 448.08  467.08 450.5  464 450.5  C 460.92 450.5  458.5 448.08  458.5 445  C 458.5 441.92  460.92 439.5  464 439.5  Z " stroke-width="1" stroke="#797979" fill="none" />
  <path d="M 464 448  C 462.32 448  461 446.68  461 445  C 461 443.32  462.32 442  464 442  C 465.68 442  467 443.32  467 445  C 467 446.68  465.68 448  464 448  " fill-rule="nonzero" fill="#797979" stroke="none" />
</svg>