<?xml version="1.0" encoding="utf-8"?>
<svg version="1.1" xmlns:xlink="http://www.w3.org/1999/xlink" width="12px" height="12px" viewBox="821 221  12 12" xmlns="http://www.w3.org/2000/svg">
  <path d="M 827 221  C 830.36 221  833 223.64  833 227  C 833 230.36  830.36 233  827 233  C 823.64 233  821 230.36  821 227  C 821 223.64  823.64 221  827 221  Z " fill-rule="nonzero" fill="#f0f0f0" stroke="none" />
  <path d="M 827 221.5  C 830.08 221.5  832.5 223.92  832.5 227  C 832.5 230.08  830.08 232.5  827 232.5  C 823.92 232.5  821.5 230.08  821.5 227  C 821.5 223.92  823.92 221.5  827 221.5  Z " stroke-width="1" stroke="#797979" fill="none" />
  <path d="M 827 230  C 825.32 230  824 228.68  824 227  C 824 225.32  825.32 224  827 224  C 828.68 224  830 225.32  830 227  C 830 228.68  828.68 230  827 230  " fill-rule="nonzero" fill="#797979" stroke="none" />
</svg>