<?xml version="1.0" encoding="utf-8"?>
<svg version="1.1" xmlns:xlink="http://www.w3.org/1999/xlink" width="12px" height="12px" viewBox="229 414  12 12" xmlns="http://www.w3.org/2000/svg">
  <path d="M 235 414  C 238.36 414  241 416.64  241 420  C 241 423.36  238.36 426  235 426  C 231.64 426  229 423.36  229 420  C 229 416.64  231.64 414  235 414  Z " fill-rule="nonzero" fill="#ffffff" stroke="none" />
  <path d="M 235 414.5  C 238.08 414.5  240.5 416.92  240.5 420  C 240.5 423.08  238.08 425.5  235 425.5  C 231.92 425.5  229.5 423.08  229.5 420  C 229.5 416.92  231.92 414.5  235 414.5  Z " stroke-width="1" stroke="#797979" fill="none" />
  <path d="M 235 423  C 233.32 423  232 421.68  232 420  C 232 418.32  233.32 417  235 417  C 236.68 417  238 418.32  238 420  C 238 421.68  236.68 423  235 423  " fill-rule="nonzero" fill="#797979" stroke="none" />
</svg>