<?xml version="1.0" encoding="utf-8"?>
<svg version="1.1" xmlns:xlink="http://www.w3.org/1999/xlink" width="12px" height="12px" viewBox="197 774  12 12" xmlns="http://www.w3.org/2000/svg">
  <path d="M 203 774  C 206.36 774  209 776.64  209 780  C 209 783.36  206.36 786  203 786  C 199.64 786  197 783.36  197 780  C 197 776.64  199.64 774  203 774  Z " fill-rule="nonzero" fill="#ffffff" stroke="none" />
  <path d="M 203 774.5  C 206.08 774.5  208.5 776.92  208.5 780  C 208.5 783.08  206.08 785.5  203 785.5  C 199.92 785.5  197.5 783.08  197.5 780  C 197.5 776.92  199.92 774.5  203 774.5  Z " stroke-width="1" stroke="#797979" fill="none" />
  <path d="M 203 783  C 201.32 783  200 781.68  200 780  C 200 778.32  201.32 777  203 777  C 204.68 777  206 778.32  206 780  C 206 781.68  204.68 783  203 783  " fill-rule="nonzero" fill="#797979" stroke="none" />
</svg>