<?xml version="1.0" encoding="utf-8"?>
<svg version="1.1" xmlns:xlink="http://www.w3.org/1999/xlink" width="12px" height="12px" viewBox="113 414  12 12" xmlns="http://www.w3.org/2000/svg">
  <path d="M 119 414  C 122.36 414  125 416.64  125 420  C 125 423.36  122.36 426  119 426  C 115.64 426  113 423.36  113 420  C 113 416.64  115.64 414  119 414  Z " fill-rule="nonzero" fill="#f0f0f0" stroke="none" />
  <path d="M 119 414.5  C 122.08 414.5  124.5 416.92  124.5 420  C 124.5 423.08  122.08 425.5  119 425.5  C 115.92 425.5  113.5 423.08  113.5 420  C 113.5 416.92  115.92 414.5  119 414.5  Z " stroke-width="1" stroke="#797979" fill="none" />
  <path d="M 119 423  C 117.32 423  116 421.68  116 420  C 116 418.32  117.32 417  119 417  C 120.68 417  122 418.32  122 420  C 122 421.68  120.68 423  119 423  " fill-rule="nonzero" fill="#797979" stroke="none" />
</svg>