<?xml version="1.0" encoding="utf-8"?>
<svg version="1.1" xmlns:xlink="http://www.w3.org/1999/xlink" width="12px" height="12px" viewBox="225 85  12 12" xmlns="http://www.w3.org/2000/svg">
  <path d="M 231 85  C 234.36 85  237 87.64  237 91  C 237 94.36  234.36 97  231 97  C 227.64 97  225 94.36  225 91  C 225 87.64  227.64 85  231 85  Z " fill-rule="nonzero" fill="#f0f0f0" stroke="none" />
  <path d="M 231 85.5  C 234.08 85.5  236.5 87.92  236.5 91  C 236.5 94.08  234.08 96.5  231 96.5  C 227.92 96.5  225.5 94.08  225.5 91  C 225.5 87.92  227.92 85.5  231 85.5  Z " stroke-width="1" stroke="#797979" fill="none" />
  <path d="M 231 94  C 229.32 94  228 92.68  228 91  C 228 89.32  229.32 88  231 88  C 232.68 88  234 89.32  234 91  C 234 92.68  232.68 94  231 94  " fill-rule="nonzero" fill="#797979" stroke="none" />
</svg>