<?xml version="1.0" encoding="utf-8"?>
<svg version="1.1" xmlns:xlink="http://www.w3.org/1999/xlink" width="12px" height="12px" viewBox="969 463  12 12" xmlns="http://www.w3.org/2000/svg">
  <path d="M 975 463  C 978.36 463  981 465.64  981 469  C 981 472.36  978.36 475  975 475  C 971.64 475  969 472.36  969 469  C 969 465.64  971.64 463  975 463  Z " fill-rule="nonzero" fill="#f0f0f0" stroke="none" />
  <path d="M 975 463.5  C 978.08 463.5  980.5 465.92  980.5 469  C 980.5 472.08  978.08 474.5  975 474.5  C 971.92 474.5  969.5 472.08  969.5 469  C 969.5 465.92  971.92 463.5  975 463.5  Z " stroke-width="1" stroke="#797979" fill="none" />
  <path d="M 975 472  C 973.32 472  972 470.68  972 469  C 972 467.32  973.32 466  975 466  C 976.68 466  978 467.32  978 469  C 978 470.68  976.68 472  975 472  " fill-rule="nonzero" fill="#797979" stroke="none" />
</svg>