<?xml version="1.0" encoding="utf-8"?>
<svg version="1.1" xmlns:xlink="http://www.w3.org/1999/xlink" width="12px" height="12px" viewBox="515 274  12 12" xmlns="http://www.w3.org/2000/svg">
  <path d="M 521 274  C 524.36 274  527 276.64  527 280  C 527 283.36  524.36 286  521 286  C 517.64 286  515 283.36  515 280  C 515 276.64  517.64 274  521 274  Z " fill-rule="nonzero" fill="#ffffff" stroke="none" />
  <path d="M 521 274.5  C 524.08 274.5  526.5 276.92  526.5 280  C 526.5 283.08  524.08 285.5  521 285.5  C 517.92 285.5  515.5 283.08  515.5 280  C 515.5 276.92  517.92 274.5  521 274.5  Z " stroke-width="1" stroke="#797979" fill="none" />
  <path d="M 521 283  C 519.32 283  518 281.68  518 280  C 518 278.32  519.32 277  521 277  C 522.68 277  524 278.32  524 280  C 524 281.68  522.68 283  521 283  " fill-rule="nonzero" fill="#797979" stroke="none" />
</svg>