<?xml version="1.0" encoding="utf-8"?>
<svg version="1.1" xmlns:xlink="http://www.w3.org/1999/xlink" width="12px" height="12px" viewBox="390 274  12 12" xmlns="http://www.w3.org/2000/svg">
  <path d="M 396 274  C 399.36 274  402 276.64  402 280  C 402 283.36  399.36 286  396 286  C 392.64 286  390 283.36  390 280  C 390 276.64  392.64 274  396 274  Z " fill-rule="nonzero" fill="#ffffff" stroke="none" />
  <path d="M 396 274.5  C 399.08 274.5  401.5 276.92  401.5 280  C 401.5 283.08  399.08 285.5  396 285.5  C 392.92 285.5  390.5 283.08  390.5 280  C 390.5 276.92  392.92 274.5  396 274.5  Z " stroke-width="1" stroke="#797979" fill="none" />
  <path d="M 396 283  C 394.32 283  393 281.68  393 280  C 393 278.32  394.32 277  396 277  C 397.68 277  399 278.32  399 280  C 399 281.68  397.68 283  396 283  " fill-rule="nonzero" fill="#797979" stroke="none" />
</svg>