<?xml version="1.0" encoding="utf-8"?>
<svg version="1.1" xmlns:xlink="http://www.w3.org/1999/xlink" width="110px" height="70px" xmlns="http://www.w3.org/2000/svg">
  <defs>
    <linearGradient gradientUnits="userSpaceOnUse" x1="494" y1="146" x2="494" y2="216" id="LinearGradient215">
      <stop id="Stop216" stop-color="#ffffff" offset="0" />
      <stop id="Stop217" stop-color="#f2f2f2" offset="0" />
      <stop id="Stop218" stop-color="#e4e4e4" offset="1" />
      <stop id="Stop219" stop-color="#ffffff" offset="1" />
    </linearGradient>
  </defs>
  <g transform="matrix(1 0 0 1 -439 -146 )">
    <path d="M 459 215.5  L 539 215.5  C 544.32 215.5  548.5 211.32  548.5 206  L 548.5 166  C 548.5 162.019603773678  546.16005511139 158.677374335159  542.753426824863 157.246573175137  C 541.804162307016 154.986446856925  540.013553143075 153.195837692984  537.753426824863 152.246573175137  C 536.322625664841 148.83994488861  532.980396226322 146.5  529 146.5  L 449 146.5  C 443.68 146.5  439.5 150.68  439.5 156  L 439.5 196  C 439.5 199.980396226322  441.83994488861 203.322625664841  445.246573175137 204.753426824863  C 446.195837692984 207.013553143075  447.986446856925 208.804162307016  450.246573175137 209.753426824863  C 451.677374335159 213.16005511139  455.019603773678 215.5  459 215.5  Z " fill-rule="nonzero" fill="url(#LinearGradient215)" stroke="none" />
    <path d="M 459.5 215.5  L 538.5 215.5  C 544.1 215.5  548.5 211.1  548.5 205.5  L 548.5 166.5  C 548.5 162.382075431273  546.120786603431 158.913027243428  542.634752186914 157.365247813086  C 541.644031495375 155.13386628665  539.86613371335 153.355968504626  537.634752186914 152.365247813086  C 536.086972756572 148.879213396569  532.617924568727 146.5  528.5 146.5  L 449.5 146.5  C 443.9 146.5  439.5 150.9  439.5 156.5  L 439.5 195.5  C 439.5 199.617924568727  441.879213396569 203.086972756572  445.365247813086 204.634752186914  C 446.355968504626 206.86613371335  448.13386628665 208.644031495374  450.365247813086 209.634752186914  C 451.913027243428 213.120786603431  455.382075431273 215.5  459.5 215.5  Z " stroke-width="1" stroke="#797979" fill="none" />
    <path d="M 542.678014577568 157.071985422432  C 543.207220379431 158.263905668009  543.5 159.592028340291  543.5 161  L 543.5 200.5  C 543.5 206.1  539.1 210.5  533.5 210.5  L 454 210.5  C 450.087971659709 210.5  446.792375881257 208.23974727326  445.321985422432 204.928014577568  M 537.678014577568 152.071985422432  C 538.207220379431 153.263905668009  538.5 154.592028340291  538.5 156  L 538.5 195.499  C 538.5 201.099  534.1 205.499  528.5 205.499  L 449 205.5  C 447.592028340291 205.5  446.263905668009 205.207220379431  445.071985422432 204.678014577568  " stroke-width="1" stroke="#797979" fill="none" />
  </g>
</svg>