<?xml version="1.0" encoding="utf-8"?>
<svg version="1.1" xmlns:xlink="http://www.w3.org/1999/xlink" width="99px" height="90px" xmlns="http://www.w3.org/2000/svg">
  <defs>
    <linearGradient gradientUnits="userSpaceOnUse" x1="488.5" y1="432" x2="488.5" y2="522" id="LinearGradient227">
      <stop id="Stop228" stop-color="#ffffff" offset="0" />
      <stop id="Stop229" stop-color="#f2f2f2" offset="0" />
      <stop id="Stop230" stop-color="#e4e4e4" offset="1" />
      <stop id="Stop231" stop-color="#ffffff" offset="1" />
    </linearGradient>
  </defs>
  <g transform="matrix(1 0 0 1 -439 -432 )">
    <path d="M 449.5 521.5  L 537.5 521.5  L 537.5 452.5  L 517.5 432.5  L 439.5 432.5  L 439.5 511.5  L 444.5 511.5  L 444.5 516.5  L 449.5 516.5  L 449.5 521.5  Z " fill-rule="nonzero" fill="url(#LinearGradient227)" stroke="none" />
    <path d="M 449.5 521.5  L 537.5 521.5  L 537.5 452.5  L 517.5 432.5  L 439.5 432.5  L 439.5 511.5  L 444.5 511.5  L 444.5 516.5  L 449.5 516.5  L 449.5 521.5  Z " stroke-width="1" stroke="#797979" fill="none" />
    <path d="M 527.5 447.5  L 532.5 448  L 532.5 516.5  L 450 516.5  M 517.5 433  L 517.5 442.5  L 527.5 442.5  L 527.5 511.5  L 445 511.5  M 537 452.5  L 532.5 452.5  " stroke-width="1" stroke="#797979" fill="none" />
  </g>
</svg>