<?xml version="1.0" encoding="utf-8"?>
<svg version="1.1" xmlns:xlink="http://www.w3.org/1999/xlink" width="78px" height="32px" xmlns="http://www.w3.org/2000/svg">
  <g transform="matrix(1 0 0 1 -560 -553 )">
    <path d="M 561 557  A 3 3 0 0 1 564 554 L 634 554  A 3 3 0 0 1 637 557 L 637 581  A 3 3 0 0 1 634 584 L 564 584  A 3 3 0 0 1 561 581 L 561 557  Z " fill-rule="nonzero" fill="#ffffff" stroke="none" fill-opacity="0.0980392156862745" />
    <path d="M 560.5 557  A 3.5 3.5 0 0 1 564 553.5 L 634 553.5  A 3.5 3.5 0 0 1 637.5 557 L 637.5 581  A 3.5 3.5 0 0 1 634 584.5 L 564 584.5  A 3.5 3.5 0 0 1 560.5 581 L 560.5 557  Z " stroke-width="1" stroke="#333333" fill="none" stroke-opacity="0.2" />
  </g>
</svg>