<?xml version="1.0" encoding="utf-8"?>
<svg version="1.1" xmlns:xlink="http://www.w3.org/1999/xlink" width="78px" height="32px" xmlns="http://www.w3.org/2000/svg">
  <g transform="matrix(1 0 0 1 -459 -553 )">
    <path d="M 460 557  A 3 3 0 0 1 463 554 L 533 554  A 3 3 0 0 1 536 557 L 536 581  A 3 3 0 0 1 533 584 L 463 584  A 3 3 0 0 1 460 581 L 460 557  Z " fill-rule="nonzero" fill="#ecf5ff" stroke="none" />
    <path d="M 459.5 557  A 3.5 3.5 0 0 1 463 553.5 L 533 553.5  A 3.5 3.5 0 0 1 536.5 557 L 536.5 581  A 3.5 3.5 0 0 1 533 584.5 L 463 584.5  A 3.5 3.5 0 0 1 459.5 581 L 459.5 557  Z " stroke-width="1" stroke="#333333" fill="none" stroke-opacity="0.2" />
  </g>
</svg>