<?xml version="1.0" encoding="utf-8"?>
<svg version="1.1" xmlns:xlink="http://www.w3.org/1999/xlink" width="12px" height="12px" viewBox="358 637  12 12" xmlns="http://www.w3.org/2000/svg">
  <path d="M 364 637  C 367.36 637  370 639.64  370 643  C 370 646.36  367.36 649  364 649  C 360.64 649  358 646.36  358 643  C 358 639.64  360.64 637  364 637  Z " fill-rule="nonzero" fill="#f0f0f0" stroke="none" />
  <path d="M 364 637.5  C 367.08 637.5  369.5 639.92  369.5 643  C 369.5 646.08  367.08 648.5  364 648.5  C 360.92 648.5  358.5 646.08  358.5 643  C 358.5 639.92  360.92 637.5  364 637.5  Z " stroke-width="1" stroke="#797979" fill="none" />
  <path d="M 364 646  C 362.32 646  361 644.68  361 643  C 361 641.32  362.32 640  364 640  C 365.68 640  367 641.32  367 643  C 367 644.68  365.68 646  364 646  " fill-rule="nonzero" fill="#797979" stroke="none" />
</svg>