<?xml version="1.0" encoding="utf-8"?>
<svg version="1.1" xmlns:xlink="http://www.w3.org/1999/xlink" width="12px" height="12px" viewBox="143 390  12 12" xmlns="http://www.w3.org/2000/svg">
  <path d="M 149 390  C 152.36 390  155 392.64  155 396  C 155 399.36  152.36 402  149 402  C 145.64 402  143 399.36  143 396  C 143 392.64  145.64 390  149 390  Z " fill-rule="nonzero" fill="#f0f0f0" stroke="none" />
  <path d="M 149 390.5  C 152.08 390.5  154.5 392.92  154.5 396  C 154.5 399.08  152.08 401.5  149 401.5  C 145.92 401.5  143.5 399.08  143.5 396  C 143.5 392.92  145.92 390.5  149 390.5  Z " stroke-width="1" stroke="#797979" fill="none" />
  <path d="M 149 399  C 147.32 399  146 397.68  146 396  C 146 394.32  147.32 393  149 393  C 150.68 393  152 394.32  152 396  C 152 397.68  150.68 399  149 399  " fill-rule="nonzero" fill="#797979" stroke="none" />
</svg>