<?xml version="1.0" encoding="utf-8"?>
<svg version="1.1" xmlns:xlink="http://www.w3.org/1999/xlink" width="12px" height="12px" viewBox="221 390  12 12" xmlns="http://www.w3.org/2000/svg">
  <path d="M 227 390  C 230.36 390  233 392.64  233 396  C 233 399.36  230.36 402  227 402  C 223.64 402  221 399.36  221 396  C 221 392.64  223.64 390  227 390  Z " fill-rule="nonzero" fill="#f0f0f0" stroke="none" />
  <path d="M 227 390.5  C 230.08 390.5  232.5 392.92  232.5 396  C 232.5 399.08  230.08 401.5  227 401.5  C 223.92 401.5  221.5 399.08  221.5 396  C 221.5 392.92  223.92 390.5  227 390.5  Z " stroke-width="1" stroke="#797979" fill="none" />
  <path d="M 227 399  C 225.32 399  224 397.68  224 396  C 224 394.32  225.32 393  227 393  C 228.68 393  230 394.32  230 396  C 230 397.68  228.68 399  227 399  " fill-rule="nonzero" fill="#797979" stroke="none" />
</svg>